<svg width="54" height="54" viewBox="0 0 54 54" fill="none" xmlns="http://www.w3.org/2000/svg">
<path d="M24.042 34.003H29.958C29.8398 34.702 29.4779 35.3365 28.9364 35.7941C28.395 36.2517 27.709 36.5028 27 36.5028C26.2911 36.5028 25.6051 36.2517 25.0636 35.7941C24.5222 35.3365 24.1603 34.702 24.042 34.003ZM27 17.003C28.9892 17.003 30.8968 17.7932 32.3033 19.1997C33.7099 20.6062 34.5 22.5139 34.5 24.503V28.503L35.918 31.663C35.9825 31.8075 36.0099 31.9659 35.9976 32.1237C35.9853 32.2814 35.9338 32.4336 35.8478 32.5665C35.7618 32.6993 35.6439 32.8085 35.5049 32.8842C35.366 32.9599 35.2103 32.9997 35.052 33H18.952C18.7936 33 18.6376 32.9603 18.4984 32.8846C18.3592 32.8089 18.2411 32.6996 18.1549 32.5666C18.0688 32.4336 18.0172 32.2812 18.005 32.1232C17.9928 31.9652 18.0203 31.8067 18.085 31.662L19.5 28.502V24.49L19.505 24.24C19.5734 22.2979 20.393 20.4581 21.7911 19.1083C23.1892 17.7585 25.0567 17.0031 27 17.003Z" fill="white"/>
</svg>
