<svg width="34" height="34" viewBox="0 0 34 34" fill="none" xmlns="http://www.w3.org/2000/svg">
<rect width="34" height="34" rx="17" transform="matrix(-4.37114e-08 1 1 4.37114e-08 0 0)" />
<path d="M11.7098 14.31C11.8023 14.2173 11.9122 14.1438 12.0332 14.0936C12.1541 14.0434 12.2838 14.0176 12.4148 14.0176C12.5457 14.0176 12.6754 14.0434 12.7964 14.0936C12.9174 14.1438 13.0273 14.2173 13.1198 14.31L16.9998 18.19L20.8798 14.31C21.0668 14.123 21.3204 14.018 21.5848 14.018C21.8492 14.018 22.1028 14.123 22.2898 14.31C22.4768 14.497 22.5818 14.7506 22.5818 15.015C22.5818 15.2794 22.4768 15.533 22.2898 15.72L17.6998 20.31C17.6073 20.4027 17.4974 20.4763 17.3764 20.5265C17.2554 20.5766 17.1257 20.6025 16.9948 20.6025C16.8638 20.6025 16.7341 20.5766 16.6132 20.5265C16.4922 20.4763 16.3823 20.4027 16.2898 20.31L11.6998 15.72C11.3198 15.34 11.3198 14.7 11.7098 14.31Z" fill="white"/>
</svg>
