<svg width="54" height="54" viewBox="0 0 54 54" fill="none" xmlns="http://www.w3.org/2000/svg">
<path d="M36 27L24 27M36 21L24 21M36 33L24 33M20 27C20 27.5523 19.5523 28 19 28C18.4477 28 18 27.5523 18 27C18 26.4477 18.4477 26 19 26C19.5523 26 20 26.4477 20 27ZM20 21C20 21.5523 19.5523 22 19 22C18.4477 22 18 21.5523 18 21C18 20.4477 18.4477 20 19 20C19.5523 20 20 20.4477 20 21ZM20 33C20 33.5523 19.5523 34 19 34C18.4477 34 18 33.5523 18 33C18 32.4477 18.4477 32 19 32C19.5523 32 20 32.4477 20 33Z" stroke="white" stroke-width="2" stroke-linecap="round" stroke-linejoin="round"/>
</svg>
