<svg width="24" height="24" viewBox="0 0 24 24" fill="none" xmlns="http://www.w3.org/2000/svg">
<g clip-path="url(#clip0_1787_593)">
<path fill-rule="evenodd" clip-rule="evenodd" d="M6.55556 5C6.143 5 5.74733 5.16389 5.45561 5.45561C5.16389 5.74733 5 6.143 5 6.55556V17.4444C5 17.857 5.16389 18.2527 5.45561 18.5444C5.74733 18.8361 6.143 19 6.55556 19H17.4444C17.857 19 18.2527 18.8361 18.5444 18.5444C18.8361 18.2527 19 17.857 19 17.4444V6.55556C19 6.143 18.8361 5.74733 18.5444 5.45561C18.2527 5.16389 17.857 5 17.4444 5H6.55556ZM15.85 10.2858C15.9959 10.1399 16.078 9.9421 16.078 9.73578C16.0781 9.52945 15.9962 9.33155 15.8504 9.18561C15.7045 9.03967 15.5067 8.95764 15.3004 8.95757C15.0941 8.95749 14.8962 9.03938 14.7502 9.18522L10.9002 13.0352L9.25056 11.3856C9.17834 11.3133 9.0926 11.256 8.99823 11.2168C8.90387 11.1777 8.80271 11.1575 8.70055 11.1575C8.49423 11.1574 8.29633 11.2393 8.15039 11.3852C8.00445 11.531 7.92242 11.7288 7.92234 11.9352C7.92227 12.1415 8.00416 12.3394 8.15 12.4853L10.2951 14.6304C10.3746 14.7099 10.4689 14.773 10.5727 14.816C10.6765 14.859 10.7878 14.8812 10.9002 14.8812C11.0126 14.8812 11.1239 14.859 11.2277 14.816C11.3315 14.773 11.4259 14.7099 11.5053 14.6304L15.85 10.2858Z" fill="white"/>
</g>
<defs>
<clipPath id="clip0_1787_593">
<rect width="24" height="24" fill="white"/>
</clipPath>
</defs>
</svg>
