<svg width="20" height="20" viewBox="0 0 20 20" fill="none" xmlns="http://www.w3.org/2000/svg">
<g clip-path="url(#clip0_1604_5800)">
<path fill-rule="evenodd" clip-rule="evenodd" d="M9.9987 14.265C9.73348 14.265 9.47913 14.1597 9.29159 13.9721C9.10405 13.7846 8.9987 13.5303 8.9987 13.265C8.9987 12.9998 9.10405 12.7455 9.29159 12.5579C9.47913 12.3704 9.73348 12.265 9.9987 12.265C10.2639 12.265 10.5183 12.3704 10.7058 12.5579C10.8933 12.7455 10.9987 12.9998 10.9987 13.265C10.9987 13.5303 10.8933 13.7846 10.7058 13.9721C10.5183 14.1597 10.2639 14.265 9.9987 14.265ZM9.16536 6.06921C9.16536 5.84819 9.25316 5.63623 9.40944 5.47995C9.56572 5.32367 9.77768 5.23587 9.9987 5.23587C10.2197 5.23587 10.4317 5.32367 10.588 5.47995C10.7442 5.63623 10.832 5.84819 10.832 6.06921V10.2359C10.832 10.4569 10.7442 10.6688 10.588 10.8251C10.4317 10.9814 10.2197 11.0692 9.9987 11.0692C9.77768 11.0692 9.56572 10.9814 9.40944 10.8251C9.25316 10.6688 9.16536 10.4569 9.16536 10.2359V6.06921ZM9.9987 0.833374C4.9362 0.833374 0.832031 4.93754 0.832031 10C0.832031 15.0634 4.9362 19.1667 9.9987 19.1667C15.0612 19.1667 19.1654 15.0634 19.1654 10C19.1654 4.93754 15.0612 0.833374 9.9987 0.833374Z" fill="#F84949"/>
</g>
<defs>
<clipPath id="clip0_1604_5800">
<rect width="20" height="20" fill="white"/>
</clipPath>
</defs>
</svg>
