<svg width="18" height="18" viewBox="0 0 18 18" fill="none" xmlns="http://www.w3.org/2000/svg">
<g clip-path="url(#clip0_1787_5186)">
<path d="M9 3C12.3138 3 15 5.6862 15 9C15 12.3138 12.3138 15 9 15C5.6862 15 3 12.3138 3 9C3 5.6862 5.6862 3 9 3ZM9 4.2C7.72696 4.2 6.50606 4.70571 5.60589 5.60589C4.70571 6.50606 4.2 7.72696 4.2 9C4.2 10.273 4.70571 11.4939 5.60589 12.3941C6.50606 13.2943 7.72696 13.8 9 13.8C10.273 13.8 11.4939 13.2943 12.3941 12.3941C13.2943 11.4939 13.8 10.273 13.8 9C13.8 7.72696 13.2943 6.50606 12.3941 5.60589C11.4939 4.70571 10.273 4.2 9 4.2ZM9 5.4C9.14696 5.40002 9.2888 5.45397 9.39862 5.55163C9.50844 5.64928 9.57861 5.78385 9.5958 5.9298L9.6 6V8.7516L11.2242 10.3758C11.3318 10.4838 11.3943 10.6287 11.3989 10.781C11.4036 10.9334 11.3501 11.0818 11.2493 11.1962C11.1484 11.3105 11.0079 11.3822 10.8561 11.3966C10.7044 11.4111 10.5528 11.3672 10.4322 11.274L10.3758 11.2242L8.5758 9.4242C8.48255 9.33087 8.42266 9.2094 8.4054 9.0786L8.4 9V6C8.4 5.84087 8.46321 5.68826 8.57574 5.57574C8.68826 5.46321 8.84087 5.4 9 5.4Z" fill="#A5A5A5"/>
</g>
<defs>
<clipPath id="clip0_1787_5186">
<rect width="18" height="18" fill="white"/>
</clipPath>
</defs>
</svg>
