<svg width="24" height="24" viewBox="0 0 24 24" fill="none" xmlns="http://www.w3.org/2000/svg">
<rect width="24" height="24" rx="12" fill="#4C535D"/>
<path d="M12.1428 12.4286C12.5372 12.4286 12.857 12.1088 12.857 11.7144C12.857 11.3199 12.5372 11.0001 12.1428 11.0001C11.7483 11.0001 11.4285 11.3199 11.4285 11.7144C11.4285 12.1088 11.7483 12.4286 12.1428 12.4286Z" stroke="#A5A5A5" stroke-width="1.5" stroke-linecap="round"/>
<path d="M6.71429 12.4286C7.10877 12.4286 7.42857 12.1088 7.42857 11.7144C7.42857 11.3199 7.10877 11.0001 6.71429 11.0001C6.3198 11.0001 6 11.3199 6 11.7144C6 12.1088 6.3198 12.4286 6.71429 12.4286Z" stroke="#A5A5A5" stroke-width="1.5" stroke-linecap="round"/>
<path d="M17.5712 12.4286C17.9657 12.4286 18.2855 12.1088 18.2855 11.7144C18.2855 11.3199 17.9657 11.0001 17.5712 11.0001C17.1767 11.0001 16.8569 11.3199 16.8569 11.7144C16.8569 12.1088 17.1767 12.4286 17.5712 12.4286Z" stroke="#A5A5A5" stroke-width="1.5" stroke-linecap="round"/>
</svg>
