<svg width="230" height="164" viewBox="0 0 230 164" fill="none" xmlns="http://www.w3.org/2000/svg">
<path d="M42.6201 162.763H174.135V83.579V32.5768L141.257 0.5H108.378H42.6201V162.763Z" fill="#33373F"/>
<path d="M174.136 32.5768L141.257 0.5V27.0024C141.257 30.0811 143.753 32.5768 146.831 32.5768H174.136Z" fill="#656D77"/>
<rect x="60.3201" y="113.188" width="96.1168" height="7.19803" fill="#4C535D"/>
<rect x="60.3201" y="70.2295" width="96.1168" height="7.19803" fill="#4C535D"/>
<rect x="60.3201" y="134.668" width="96.1168" height="7.19803" fill="#4C535D"/>
<rect x="60.3201" y="91.709" width="96.1168" height="7.19803" fill="#4C535D"/>
<rect x="60.3201" y="48.7505" width="96.1168" height="7.19803" fill="#4C535D"/>
<rect x="60.3201" y="27.271" width="50.9717" height="7.19803" fill="#4C535D"/>
<path fill-rule="evenodd" clip-rule="evenodd" d="M185.796 114.89C200.686 103.063 204.324 81.6064 193.653 65.434C182.369 48.3326 159.358 43.6163 142.257 54.9001C125.155 66.1838 120.439 89.1945 131.723 106.296C142.394 122.469 163.552 127.565 180.283 118.528L185.255 126.063C184.044 128.281 184.068 131.078 185.557 133.334L201.484 157.473C203.63 160.725 208.005 161.622 211.257 159.476C214.509 157.33 215.406 152.955 213.26 149.703L197.334 125.564C195.845 123.308 193.283 122.186 190.768 122.426L185.796 114.89Z" fill="#656D77"/>
<circle cx="162.688" cy="85.865" r="28.3348" transform="rotate(-33.4172 162.688 85.865)" fill="#33373F"/>
<path d="M154.951 79.6694C154.951 75.3959 158.415 71.9316 162.688 71.9316C166.962 71.9316 170.426 75.3959 170.426 79.6694C170.426 82.8037 168.563 85.5027 165.883 86.7189C164.227 87.4705 162.688 88.8812 162.688 90.6995V94.0171" stroke="#656D77" stroke-width="5.5"/>
<circle cx="162.688" cy="100.026" r="3.02361" fill="#656D77"/>
</svg>
