<svg xmlns="http://www.w3.org/2000/svg" width="230" height="164" fill="none"><path fill="#33373F" d="M42.62 162.763h131.515V32.577L141.257.5H42.62z"/><path fill="#656D77" d="M174.136 32.577 141.257.5v26.502a5.574 5.574 0 0 0 5.574 5.575z"/><path fill="#4C535D" d="M60.32 113.188h96.117v7.198H60.32zm0-42.958h96.117v7.198H60.32zm0 64.438h96.117v7.198H60.32zm0-42.959h96.117v7.198H60.32zm0-42.958h96.117v7.198H60.32zm0-21.48h50.972v7.198H60.32z"/><path fill="#656D77" fill-rule="evenodd" d="M185.796 114.89c14.89-11.827 18.528-33.284 7.857-49.456-11.284-17.101-34.295-21.818-51.396-10.534-17.102 11.284-21.818 34.295-10.534 51.396 10.671 16.173 31.829 21.269 48.56 12.232l4.972 7.535a7.05 7.05 0 0 0 .302 7.271l15.927 24.139a7.054 7.054 0 1 0 11.776-7.77l-15.926-24.139a7.06 7.06 0 0 0-6.566-3.138z" clip-rule="evenodd"/><circle cx="162.688" cy="85.865" r="28.335" fill="#33373F" transform="rotate(-33.417 162.688 85.865)"/><path stroke="#656D77" stroke-width="5.5" d="M154.951 79.67a7.737 7.737 0 1 1 15.475 0 7.74 7.74 0 0 1-4.543 7.049c-1.656.752-3.195 2.162-3.195 3.98v3.318"/><circle cx="162.688" cy="100.026" r="3.024" fill="#656D77"/></svg>