<svg xmlns="http://www.w3.org/2000/svg" width="63" height="34" fill="none"><rect width="63" height="34" rx="17"/><path fill="#fff" d="M23.695 9.57c3.41.01 5.933 1.705 5.924 4.29.009 2.381-2.039 3.972-4.957 4.262v2.91h6.328v1.599H16.47v-1.6h6.259v-2.909c-2.883-.29-4.931-1.88-4.922-4.263-.01-2.584 2.505-4.28 5.888-4.289m-3.972 4.29c-.01 1.713 1.652 2.742 3.972 2.742 2.356 0 4.008-1.029 4.008-2.743 0-1.66-1.652-2.715-4.008-2.707-2.32-.008-3.981 1.046-3.972 2.707m25.136-1.758v1.564H33.891v-4.78h1.916v3.217zm-12.85 4.341V14.88h14.52v1.564zm1.723 2.62V17.55h11.022v4.06h-9.035v1.23h9.562v1.53H33.75v-4.183h9.07v-1.125z"/></svg>