<svg width="18" height="18" viewBox="0 0 18 18" fill="none" xmlns="http://www.w3.org/2000/svg">
<path d="M12.8889 5.66667H5.11111C4.49746 5.66667 4 6.16413 4 6.77778V12.8889C4 13.5025 4.49746 14 5.11111 14H12.8889C13.5025 14 14 13.5025 14 12.8889V6.77778C14 6.16413 13.5025 5.66667 12.8889 5.66667Z" stroke="#A5A5A5" stroke-width="1.3"/>
<path d="M4 8C4 7.057 4 6.586 4.32556 6.293C4.65111 6 5.17444 6 6.22222 6H11.7778C12.8256 6 13.3489 6 13.6744 6.293C14 6.586 14 7.057 14 8H4Z" fill="#A5A5A5"/>
<path d="M6.22217 4V5.66667M11.7777 4V5.66667" stroke="#A5A5A5" stroke-width="1.3" stroke-linecap="round"/>
</svg>
