<svg xmlns="http://www.w3.org/2000/svg" width="18" height="18" fill="none"><path stroke="#A5A5A5" stroke-width="1.3" d="M12.889 5.667H5.11A1.11 1.11 0 0 0 4 6.777v6.112A1.11 1.11 0 0 0 5.111 14h7.778c.614 0 1.111-.498 1.111-1.111V6.778c0-.614-.498-1.111-1.111-1.111Z"/><path fill="#A5A5A5" d="M4 8c0-.943 0-1.414.326-1.707C4.65 6 5.174 6 6.222 6h5.556c1.048 0 1.57 0 1.896.293S14 7.057 14 8z"/><path stroke="#A5A5A5" stroke-linecap="round" stroke-width="1.3" d="M6.222 4v1.667M11.778 4v1.667"/></svg>