<svg width="24" height="24" viewBox="0 0 24 24" fill="none" xmlns="http://www.w3.org/2000/svg">
<g clip-path="url(#clip0_1787_4124)">
<path fill-rule="evenodd" clip-rule="evenodd" d="M6.55556 5C6.143 5 5.74733 5.16389 5.45561 5.45561C5.16389 5.74733 5 6.143 5 6.55556V17.4444C5 17.857 5.16389 18.2527 5.45561 18.5444C5.74733 18.8361 6.143 19 6.55556 19H17.4444C17.857 19 18.2527 18.8361 18.5444 18.5444C18.8361 18.2527 19 17.857 19 17.4444V6.55556C19 6.143 18.8361 5.74733 18.5444 5.45561C18.2527 5.16389 17.857 5 17.4444 5H6.55556ZM6.55556 6.55556H17.4444V17.4444H6.55556V6.55556Z" fill="white"/>
</g>
<defs>
<clipPath id="clip0_1787_4124">
<rect width="24" height="24" fill="white"/>
</clipPath>
</defs>
</svg>
