<svg xmlns="http://www.w3.org/2000/svg" width="24" height="24" fill="none"><g clip-path="url(#a)"><path fill="#fff" fill-rule="evenodd" d="M6.556 5A1.556 1.556 0 0 0 5 6.556v10.888A1.556 1.556 0 0 0 6.556 19h10.888A1.556 1.556 0 0 0 19 17.444V6.556A1.556 1.556 0 0 0 17.444 5zm9.294 5.286a.778.778 0 0 0-1.1-1.1l-3.85 3.85-1.65-1.65a.779.779 0 0 0-1.1 1.1l2.145 2.144a.856.856 0 0 0 1.21 0z" clip-rule="evenodd"/></g><defs><clipPath id="a"><path fill="#fff" d="M0 0h24v24H0z"/></clipPath></defs></svg>