<svg xmlns="http://www.w3.org/2000/svg" width="60" height="60" fill="none"><path fill="#fff" d="M3 30C3 15.088 15.088 3 30 3s27 12.088 27 27-12.088 27-27 27S3 44.912 3 30"/><path fill="#868C93" fill-rule="evenodd" d="M30 3C15.088 3 3 15.088 3 30c0 9.197 4.598 17.32 11.621 22.195v-2.208c0-4.824 2.92-9.202 7.279-10.989.608-.25 1.258-.198 1.856.074 2.177.984 4.233 1.475 6.313 1.475 2.087 0 4.136-.465 6.238-1.402a2.44 2.44 0 0 1 1.931 0c4.343 1.86 7.279 6.131 7.279 10.842v2.112C52.462 47.213 57 39.137 57 30 57 15.088 44.912 3 30 3M19.375 25.206c0-5.864 4.788-10.62 10.694-10.62s10.695 4.756 10.695 10.62c0 5.865-4.789 10.62-10.695 10.62s-10.694-4.755-10.694-10.62" clip-rule="evenodd"/></svg>