<svg xmlns="http://www.w3.org/2000/svg" width="230" height="231" fill="none"><path fill="#414751" d="m107.041 226.597-64.022-42.592a5.62 5.62 0 0 1-2.507-4.675v-10.693L115 128.522l74.488 40.185v10.623a5.62 5.62 0 0 1-2.507 4.675l-64.027 42.592a14.38 14.38 0 0 1-15.918 0z"/><path fill="#656D77" d="m106.898 213.167-65.621-43.648a1.667 1.667 0 0 1 0-2.776l73.725-49.305 73.725 49.305a1.67 1.67 0 0 1 0 2.776l-65.621 43.653a14.62 14.62 0 0 1-16.198 0z"/><path fill="#414751" d="M129.144 48.178a16677 16677 0 0 0-12.264-40.87c-.572-1.898-3.251-1.896-3.82.003-2.419 8.073-6.92 23.105-12.204 40.78 3.749 1.156 8.765 1.87 14.282 1.87s10.287-.675 14.006-1.783"/><path fill="#656D77" d="m134.588 66.468-5.459-18.295c-3.719 1.108-8.624 1.783-14.006 1.783s-10.533-.708-14.281-1.87l-5.43 18.17c2.968 2.67 10.672 4.572 19.711 4.572s16.338-1.806 19.465-4.365zm20.235 67.811-7.083-23.778c-8.283 2.819-19.827 4.568-32.595 4.568s-24.592-1.793-32.894-4.669c-2.535 8.49-4.934 16.536-7.073 23.706 7.776 4.688 22.761 7.863 39.967 7.863s31.824-3.098 39.678-7.69"/><path fill="#414751" d="M147.745 110.502c-4.201-14.099-8.769-29.43-13.13-44.034-3.131 2.558-10.662 4.365-19.465 4.365s-16.744-1.903-19.711-4.572L82.256 110.4c8.302 2.877 19.971 4.669 32.894 4.669s24.312-1.749 32.595-4.567m7.107 23.777c-7.854 4.592-22.68 7.69-39.678 7.69-16.999 0-32.19-3.175-39.967-7.864-5.402 18.112-9.136 30.654-9.136 30.726 0 10.022 20.055 20.461 48.929 20.461s48.929-10.439 48.929-20.461c0-.038-3.705-12.508-9.077-30.557z"/><path fill="#656D77" d="M155.081.959h13.407l-1.157 42.177h-11.093z"/><circle cx="161.784" cy="55.667" r="6.073" fill="#656D77"/></svg>