<svg xmlns="http://www.w3.org/2000/svg" width="54" height="54" fill="none"><path fill="#fff" d="M22.5 26a4.5 4.5 0 1 0 0-9 4.5 4.5 0 0 0 0 9m14-3.5a3.5 3.5 0 1 1-7 0 3.5 3.5 0 0 1 7 0M15 30.25A2.25 2.25 0 0 1 17.25 28h10.5q.299 0 .573.074A7.48 7.48 0 0 0 26 33.5c0 .665.086 1.309.249 1.922-.975.355-2.203.578-3.749.578-7.5 0-7.5-5.25-7.5-5.25zm14.796-.552a2 2 0 0 1-1.441 2.497l-1.024.253a6.8 6.8 0 0 0 .008 2.152l.976.235a2 2 0 0 1 1.45 2.51l-.324 1.098c.518.46 1.11.835 1.753 1.1l.843-.886a2 2 0 0 1 2.899 0l.85.895a6.2 6.2 0 0 0 1.751-1.09l-.335-1.16a2 2 0 0 1 1.441-2.495l1.026-.254a6.8 6.8 0 0 0-.008-2.152l-.977-.235a2 2 0 0 1-1.45-2.51l.324-1.1a6.2 6.2 0 0 0-1.753-1.1l-.843.888a2 2 0 0 1-2.9 0l-.849-.895a6.2 6.2 0 0 0-1.751 1.09zM33.5 35a1.5 1.5 0 1 1 0-3 1.5 1.5 0 0 1 0 3"/></svg>