<svg xmlns="http://www.w3.org/2000/svg" width="54" height="54" fill="none"><path fill="#fff" fill-rule="evenodd" d="M29.208 19.83q.68.21 1.3.54l1.833-1.1a1 1 0 0 1 1.221.15l1.018 1.018a1 1 0 0 1 .15 1.221l-1.1 1.833q.33.62.54 1.3l2.073.519a1 1 0 0 1 .757.97v1.438a1 1 0 0 1-.757.97l-2.073.519a7.4 7.4 0 0 1-.54 1.3l1.1 1.833a1 1 0 0 1-.15 1.221l-1.018 1.018a1 1 0 0 1-1.221.15l-1.833-1.1q-.62.33-1.3.54l-.519 2.073a1 1 0 0 1-.97.757h-1.438a1 1 0 0 1-.97-.757l-.519-2.073a7.5 7.5 0 0 1-1.3-.54l-1.833 1.1a1 1 0 0 1-1.221-.15l-1.018-1.018a1 1 0 0 1-.15-1.221l1.1-1.833a7.5 7.5 0 0 1-.54-1.3l-2.073-.519A1 1 0 0 1 17 27.72v-1.438a1 1 0 0 1 .757-.97l2.073-.519q.21-.68.54-1.3l-1.1-1.833a1 1 0 0 1 .15-1.221l1.018-1.019a1 1 0 0 1 1.221-.15l1.833 1.1q.62-.33 1.3-.54l.519-2.073A1 1 0 0 1 26.28 17h1.438a1 1 0 0 1 .97.757zM27 31a4 4 0 1 0 0-8 4 4 0 0 0 0 8" clip-rule="evenodd"/></svg>