<svg width="401" height="66" viewBox="0 0 401 66" fill="none" xmlns="http://www.w3.org/2000/svg">
<g filter="url(#filter0_d_1994_14263)">
<rect x="3" y="1" width="395" height="60" rx="10" fill="white" fill-opacity="0.1"/>
<path fill-rule="evenodd" clip-rule="evenodd" d="M82.2183 31.2463C82.2183 30.1892 82.1235 29.1728 81.9473 28.197H67.9072V33.9635H75.9301C75.5845 35.8269 74.5342 37.4057 72.9554 38.4628V42.2032H77.7732C80.5921 39.608 82.2183 35.7862 82.2183 31.2463Z" fill="#4285F4"/>
<path fill-rule="evenodd" clip-rule="evenodd" d="M67.9068 45.8146C71.9318 45.8146 75.3063 44.4797 77.7728 42.203L72.955 38.4626C71.6201 39.357 69.9125 39.8855 67.9068 39.8855C64.0241 39.8855 60.7377 37.2632 59.5654 33.7396H54.585V37.602C57.0379 42.474 62.0793 45.8146 67.9068 45.8146Z" fill="#34A853"/>
<path fill-rule="evenodd" clip-rule="evenodd" d="M59.566 33.7398C59.2679 32.8454 59.0985 31.89 59.0985 30.9074C59.0985 29.9249 59.2679 28.9695 59.566 28.075V24.2126H54.5856C53.576 26.2251 53 28.5019 53 30.9074C53 33.3129 53.576 35.5897 54.5856 37.6022L59.566 33.7398Z" fill="#FBBC05"/>
<path fill-rule="evenodd" clip-rule="evenodd" d="M67.9068 21.9291C70.0954 21.9291 72.0605 22.6812 73.6055 24.1584L77.8812 19.8827C75.2995 17.4772 71.925 16 67.9068 16C62.0793 16 57.0379 19.3406 54.585 24.2126L59.5654 28.075C60.7377 24.5514 64.0241 21.9291 67.9068 21.9291Z" fill="#EA4335"/>
<path d="M112.76 33.9996H115.925C115.824 35.2064 115.486 36.2824 114.912 37.2276C114.339 38.1644 113.533 38.9029 112.495 39.443C111.457 39.9831 110.195 40.2532 108.709 40.2532C107.57 40.2532 106.545 40.0506 105.633 39.6455C104.722 39.232 103.941 38.6497 103.291 37.8986C102.642 37.139 102.144 36.2234 101.798 35.1515C101.46 34.0797 101.291 32.8813 101.291 31.5564V30.0246C101.291 28.6996 101.464 27.5012 101.81 26.4294C102.165 25.3576 102.671 24.4419 103.329 23.6824C103.988 22.9144 104.777 22.3278 105.697 21.9227C106.625 21.5177 107.667 21.3151 108.823 21.3151C110.292 21.3151 111.532 21.5852 112.545 22.1253C113.558 22.6654 114.343 23.4123 114.9 24.366C115.465 25.3196 115.811 26.4125 115.938 27.6447H112.773C112.689 26.8514 112.503 26.172 112.216 25.6066C111.938 25.0411 111.524 24.6107 110.975 24.3153C110.427 24.0115 109.71 23.8596 108.823 23.8596C108.098 23.8596 107.465 23.9946 106.925 24.2647C106.384 24.5347 105.933 24.9314 105.57 25.4546C105.207 25.9779 104.933 26.6235 104.747 27.3915C104.57 28.151 104.481 29.0203 104.481 29.9993V31.5564C104.481 32.4847 104.562 33.3286 104.722 34.0882C104.891 34.8393 105.144 35.4849 105.481 36.025C105.827 36.5652 106.266 36.9829 106.798 37.2783C107.33 37.5737 107.967 37.7214 108.709 37.7214C109.613 37.7214 110.343 37.5779 110.9 37.2909C111.465 37.004 111.891 36.5863 112.178 36.0377C112.473 35.4807 112.668 34.8013 112.76 33.9996ZM117.925 33.3033V33.0122C117.925 32.0247 118.069 31.1091 118.356 30.2651C118.643 29.4127 119.056 28.6743 119.596 28.0498C120.145 27.4168 120.812 26.9273 121.596 26.5813C122.39 26.2269 123.284 26.0496 124.28 26.0496C125.285 26.0496 126.179 26.2269 126.964 26.5813C127.757 26.9273 128.428 27.4168 128.977 28.0498C129.525 28.6743 129.943 29.4127 130.23 30.2651C130.517 31.1091 130.66 32.0247 130.66 33.0122V33.3033C130.66 34.2907 130.517 35.2064 130.23 36.0503C129.943 36.8943 129.525 37.6327 128.977 38.2657C128.428 38.8902 127.761 39.3797 126.977 39.7342C126.192 40.0802 125.301 40.2532 124.306 40.2532C123.301 40.2532 122.402 40.0802 121.609 39.7342C120.824 39.3797 120.158 38.8902 119.609 38.2657C119.06 37.6327 118.643 36.8943 118.356 36.0503C118.069 35.2064 117.925 34.2907 117.925 33.3033ZM120.976 33.0122V33.3033C120.976 33.9194 121.039 34.5017 121.166 35.0503C121.293 35.5988 121.491 36.0799 121.761 36.4934C122.031 36.9069 122.377 37.2319 122.799 37.4682C123.221 37.7045 123.723 37.8226 124.306 37.8226C124.871 37.8226 125.36 37.7045 125.774 37.4682C126.196 37.2319 126.542 36.9069 126.812 36.4934C127.082 36.0799 127.28 35.5988 127.407 35.0503C127.542 34.5017 127.61 33.9194 127.61 33.3033V33.0122C127.61 32.4045 127.542 31.8306 127.407 31.2905C127.28 30.7419 127.078 30.2567 126.799 29.8347C126.529 29.4127 126.183 29.0836 125.761 28.8473C125.348 28.6026 124.854 28.4802 124.28 28.4802C123.706 28.4802 123.208 28.6026 122.786 28.8473C122.373 29.0836 122.031 29.4127 121.761 29.8347C121.491 30.2567 121.293 30.7419 121.166 31.2905C121.039 31.8306 120.976 32.4045 120.976 33.0122ZM136.243 29.2271V40H133.192V26.3028H136.066L136.243 29.2271ZM135.699 32.645L134.711 32.6324C134.72 31.6618 134.855 30.7715 135.116 29.9613C135.387 29.1511 135.758 28.4549 136.23 27.8725C136.712 27.2902 137.285 26.8429 137.952 26.5307C138.619 26.21 139.361 26.0496 140.18 26.0496C140.838 26.0496 141.433 26.1425 141.965 26.3281C142.505 26.5054 142.965 26.7965 143.345 27.2016C143.733 27.6067 144.028 28.1342 144.231 28.784C144.434 29.4254 144.535 30.2145 144.535 31.1513V40H141.471V31.1386C141.471 30.4803 141.374 29.9613 141.18 29.5815C140.995 29.1933 140.72 28.919 140.357 28.7587C140.003 28.5899 139.56 28.5055 139.028 28.5055C138.505 28.5055 138.037 28.6152 137.623 28.8346C137.209 29.0541 136.859 29.3537 136.572 29.7334C136.294 30.1132 136.079 30.5521 135.927 31.05C135.775 31.5479 135.699 32.0796 135.699 32.645ZM153.928 26.3028V28.5308H146.206V26.3028H153.928ZM148.434 22.9481H151.485V36.2149C151.485 36.6369 151.544 36.9618 151.662 37.1897C151.789 37.4091 151.962 37.5568 152.181 37.6327C152.4 37.7087 152.658 37.7467 152.953 37.7467C153.164 37.7467 153.367 37.734 153.561 37.7087C153.755 37.6834 153.911 37.6581 154.029 37.6327L154.042 39.962C153.789 40.038 153.493 40.1055 153.156 40.1646C152.827 40.2236 152.447 40.2532 152.016 40.2532C151.316 40.2532 150.696 40.1308 150.156 39.8861C149.615 39.6329 149.193 39.2236 148.89 38.6581C148.586 38.0927 148.434 37.3416 148.434 36.4048V22.9481ZM159.549 26.3028V40H156.485V26.3028H159.549ZM156.283 22.7076C156.283 22.2434 156.434 21.8594 156.738 21.5556C157.051 21.2434 157.481 21.0872 158.03 21.0872C158.57 21.0872 158.996 21.2434 159.308 21.5556C159.62 21.8594 159.776 22.2434 159.776 22.7076C159.776 23.1633 159.62 23.5431 159.308 23.8469C158.996 24.1508 158.57 24.3027 158.03 24.3027C157.481 24.3027 157.051 24.1508 156.738 23.8469C156.434 23.5431 156.283 23.1633 156.283 22.7076ZM165.916 29.2271V40H162.865V26.3028H165.739L165.916 29.2271ZM165.372 32.645L164.384 32.6324C164.393 31.6618 164.528 30.7715 164.789 29.9613C165.06 29.1511 165.431 28.4549 165.903 27.8725C166.385 27.2902 166.958 26.8429 167.625 26.5307C168.292 26.21 169.035 26.0496 169.853 26.0496C170.511 26.0496 171.106 26.1425 171.638 26.3281C172.178 26.5054 172.638 26.7965 173.018 27.2016C173.406 27.6067 173.702 28.1342 173.904 28.784C174.107 29.4254 174.208 30.2145 174.208 31.1513V40H171.144V31.1386C171.144 30.4803 171.047 29.9613 170.853 29.5815C170.668 29.1933 170.393 28.919 170.03 28.7587C169.676 28.5899 169.233 28.5055 168.701 28.5055C168.178 28.5055 167.71 28.6152 167.296 28.8346C166.882 29.0541 166.532 29.3537 166.245 29.7334C165.967 30.1132 165.752 30.5521 165.6 31.05C165.448 31.5479 165.372 32.0796 165.372 32.645ZM185.563 36.7719V26.3028H188.627V40H185.74L185.563 36.7719ZM185.994 33.9236L187.019 33.8983C187.019 34.8182 186.918 35.6664 186.715 36.4428C186.513 37.2108 186.2 37.8817 185.778 38.4556C185.356 39.021 184.816 39.4641 184.158 39.7848C183.5 40.0971 182.711 40.2532 181.791 40.2532C181.124 40.2532 180.512 40.1561 179.955 39.962C179.398 39.7679 178.917 39.4683 178.512 39.0632C178.115 38.6581 177.807 38.1307 177.588 37.4808C177.368 36.831 177.259 36.0546 177.259 35.1515V26.3028H180.31V35.1769C180.31 35.6748 180.369 36.0925 180.487 36.4301C180.605 36.7593 180.765 37.0251 180.968 37.2276C181.17 37.4302 181.407 37.5737 181.677 37.6581C181.947 37.7425 182.234 37.7847 182.538 37.7847C183.407 37.7847 184.09 37.6159 184.588 37.2783C185.095 36.9323 185.453 36.4681 185.664 35.8858C185.884 35.3035 185.994 34.6494 185.994 33.9236ZM197.792 40.2532C196.779 40.2532 195.863 40.0886 195.045 39.7595C194.235 39.4219 193.543 38.9535 192.969 38.3543C192.403 37.7551 191.969 37.0504 191.665 36.2402C191.361 35.43 191.209 34.5566 191.209 33.6198V33.1134C191.209 32.0416 191.365 31.0711 191.678 30.2018C191.99 29.3326 192.424 28.5899 192.981 27.9738C193.538 27.3493 194.197 26.8725 194.956 26.5433C195.716 26.2142 196.539 26.0496 197.425 26.0496C198.404 26.0496 199.26 26.2142 199.995 26.5433C200.729 26.8725 201.336 27.3366 201.817 27.9358C202.307 28.5266 202.67 29.2313 202.906 30.0499C203.151 30.8685 203.273 31.7716 203.273 32.759V34.0629H192.69V31.8728H200.26V31.6323C200.244 31.0837 200.134 30.5689 199.931 30.0879C199.737 29.6068 199.438 29.2186 199.032 28.9233C198.627 28.6279 198.087 28.4802 197.412 28.4802C196.906 28.4802 196.454 28.5899 196.058 28.8093C195.669 29.0203 195.344 29.3283 195.083 29.7334C194.821 30.1385 194.619 30.628 194.475 31.2019C194.34 31.7673 194.273 32.4045 194.273 33.1134V33.6198C194.273 34.219 194.353 34.776 194.513 35.2908C194.682 35.7972 194.927 36.2402 195.247 36.62C195.568 36.9998 195.956 37.2994 196.412 37.5188C196.868 37.7298 197.387 37.8353 197.969 37.8353C198.703 37.8353 199.357 37.6876 199.931 37.3922C200.505 37.0968 201.003 36.6791 201.425 36.139L203.033 37.696C202.737 38.1264 202.353 38.54 201.881 38.9366C201.408 39.3248 200.83 39.6413 200.146 39.8861C199.471 40.1308 198.686 40.2532 197.792 40.2532ZM215.831 36.9618L218.996 26.3028H220.945L220.414 29.4929L217.224 40H215.477L215.831 36.9618ZM213.97 26.3028L216.439 37.0124L216.641 40H214.692L210.983 26.3028H213.97ZM223.908 36.8859L226.3 26.3028H229.275L225.579 40H223.629L223.908 36.8859ZM221.275 26.3028L224.401 36.8352L224.794 40H223.047L219.819 29.4803L219.287 26.3028H221.275ZM234.617 26.3028V40H231.554V26.3028H234.617ZM231.351 22.7076C231.351 22.2434 231.503 21.8594 231.807 21.5556C232.119 21.2434 232.55 21.0872 233.098 21.0872C233.638 21.0872 234.065 21.2434 234.377 21.5556C234.689 21.8594 234.845 22.2434 234.845 22.7076C234.845 23.1633 234.689 23.5431 234.377 23.8469C234.065 24.1508 233.638 24.3027 233.098 24.3027C232.55 24.3027 232.119 24.1508 231.807 23.8469C231.503 23.5431 231.351 23.1633 231.351 22.7076ZM244.238 26.3028V28.5308H236.516V26.3028H244.238ZM238.744 22.9481H241.795V36.2149C241.795 36.6369 241.854 36.9618 241.972 37.1897C242.099 37.4091 242.272 37.5568 242.491 37.6327C242.711 37.7087 242.968 37.7467 243.264 37.7467C243.475 37.7467 243.677 37.734 243.871 37.7087C244.065 37.6834 244.221 37.6581 244.34 37.6327L244.352 39.962C244.099 40.038 243.804 40.1055 243.466 40.1646C243.137 40.2236 242.757 40.2532 242.327 40.2532C241.626 40.2532 241.006 40.1308 240.466 39.8861C239.926 39.6329 239.504 39.2236 239.2 38.6581C238.896 38.0927 238.744 37.3416 238.744 36.4048V22.9481ZM249.606 20.5556V40H246.568V20.5556H249.606ZM249.074 32.645L248.087 32.6324C248.095 31.6872 248.226 30.8137 248.479 30.0119C248.741 29.2102 249.104 28.5139 249.568 27.9232C250.04 27.324 250.606 26.864 251.264 26.5433C251.922 26.2142 252.652 26.0496 253.454 26.0496C254.129 26.0496 254.737 26.1425 255.277 26.3281C255.826 26.5138 256.298 26.8134 256.695 27.2269C257.092 27.632 257.391 28.1637 257.594 28.822C257.805 29.4718 257.91 30.2651 257.91 31.2019V40H254.847V31.1766C254.847 30.5183 254.75 29.9951 254.555 29.6068C254.37 29.2186 254.096 28.9401 253.733 28.7713C253.37 28.5941 252.927 28.5055 252.403 28.5055C251.855 28.5055 251.37 28.6152 250.948 28.8346C250.534 29.0541 250.188 29.3537 249.91 29.7334C249.631 30.1132 249.42 30.5521 249.277 31.05C249.142 31.5479 249.074 32.0796 249.074 32.645ZM281.912 30.5816V37.6201C281.65 37.9661 281.241 38.3459 280.684 38.7594C280.135 39.1645 279.405 39.5147 278.494 39.8101C277.582 40.1055 276.447 40.2532 275.089 40.2532C273.932 40.2532 272.873 40.0591 271.911 39.6709C270.949 39.2742 270.118 38.6961 269.417 37.9366C268.725 37.177 268.189 36.2529 267.81 35.1642C267.43 34.0671 267.24 32.818 267.24 31.4171V30.1385C267.24 28.746 267.413 27.5054 267.759 26.4167C268.113 25.3196 268.62 24.3913 269.278 23.6317C269.936 22.8722 270.73 22.2983 271.658 21.9101C272.595 21.5134 273.654 21.3151 274.835 21.3151C276.346 21.3151 277.595 21.5683 278.583 22.0747C279.578 22.5726 280.346 23.2646 280.886 24.1508C281.427 25.0369 281.768 26.0496 281.912 27.1889H278.798C278.696 26.5476 278.498 25.9737 278.203 25.4673C277.916 24.9609 277.502 24.5643 276.962 24.2773C276.43 23.982 275.738 23.8343 274.886 23.8343C274.152 23.8343 273.506 23.9735 272.949 24.252C272.392 24.5305 271.928 24.9398 271.557 25.48C271.194 26.0201 270.92 26.6784 270.734 27.4548C270.548 28.2312 270.455 29.1174 270.455 30.1132V31.4171C270.455 32.4298 270.561 33.3286 270.772 34.1135C270.991 34.8984 271.304 35.5609 271.709 36.101C272.122 36.6411 272.624 37.0504 273.215 37.3289C273.806 37.599 274.473 37.734 275.215 37.734C275.941 37.734 276.536 37.6749 277 37.5568C277.464 37.4302 277.831 37.2825 278.101 37.1137C278.38 36.9365 278.595 36.7677 278.747 36.6073V32.9489H274.911V30.5816H281.912ZM284.545 33.3033V33.0122C284.545 32.0247 284.688 31.1091 284.975 30.2651C285.262 29.4127 285.676 28.6743 286.216 28.0498C286.765 27.4168 287.431 26.9273 288.216 26.5813C289.009 26.2269 289.904 26.0496 290.9 26.0496C291.904 26.0496 292.799 26.2269 293.584 26.5813C294.377 26.9273 295.048 27.4168 295.596 28.0498C296.145 28.6743 296.563 29.4127 296.85 30.2651C297.137 31.1091 297.28 32.0247 297.28 33.0122V33.3033C297.28 34.2907 297.137 35.2064 296.85 36.0503C296.563 36.8943 296.145 37.6327 295.596 38.2657C295.048 38.8902 294.381 39.3797 293.596 39.7342C292.811 40.0802 291.921 40.2532 290.925 40.2532C289.921 40.2532 289.022 40.0802 288.229 39.7342C287.444 39.3797 286.777 38.8902 286.229 38.2657C285.68 37.6327 285.262 36.8943 284.975 36.0503C284.688 35.2064 284.545 34.2907 284.545 33.3033ZM287.596 33.0122V33.3033C287.596 33.9194 287.659 34.5017 287.786 35.0503C287.912 35.5988 288.111 36.0799 288.381 36.4934C288.651 36.9069 288.997 37.2319 289.419 37.4682C289.841 37.7045 290.343 37.8226 290.925 37.8226C291.491 37.8226 291.98 37.7045 292.394 37.4682C292.816 37.2319 293.162 36.9069 293.432 36.4934C293.702 36.0799 293.9 35.5988 294.027 35.0503C294.162 34.5017 294.229 33.9194 294.229 33.3033V33.0122C294.229 32.4045 294.162 31.8306 294.027 31.2905C293.9 30.7419 293.698 30.2567 293.419 29.8347C293.149 29.4127 292.803 29.0836 292.381 28.8473C291.967 28.6026 291.474 28.4802 290.9 28.4802C290.326 28.4802 289.828 28.6026 289.406 28.8473C288.993 29.0836 288.651 29.4127 288.381 29.8347C288.111 30.2567 287.912 30.7419 287.786 31.2905C287.659 31.8306 287.596 32.4045 287.596 33.0122ZM299.255 33.3033V33.0122C299.255 32.0247 299.398 31.1091 299.685 30.2651C299.972 29.4127 300.386 28.6743 300.926 28.0498C301.474 27.4168 302.141 26.9273 302.926 26.5813C303.719 26.2269 304.614 26.0496 305.61 26.0496C306.614 26.0496 307.509 26.2269 308.294 26.5813C309.087 26.9273 309.758 27.4168 310.306 28.0498C310.855 28.6743 311.273 29.4127 311.56 30.2651C311.847 31.1091 311.99 32.0247 311.99 33.0122V33.3033C311.99 34.2907 311.847 35.2064 311.56 36.0503C311.273 36.8943 310.855 37.6327 310.306 38.2657C309.758 38.8902 309.091 39.3797 308.306 39.7342C307.521 40.0802 306.631 40.2532 305.635 40.2532C304.631 40.2532 303.732 40.0802 302.939 39.7342C302.154 39.3797 301.487 38.8902 300.939 38.2657C300.39 37.6327 299.972 36.8943 299.685 36.0503C299.398 35.2064 299.255 34.2907 299.255 33.3033ZM302.306 33.0122V33.3033C302.306 33.9194 302.369 34.5017 302.496 35.0503C302.622 35.5988 302.821 36.0799 303.091 36.4934C303.361 36.9069 303.707 37.2319 304.129 37.4682C304.551 37.7045 305.053 37.8226 305.635 37.8226C306.201 37.8226 306.69 37.7045 307.104 37.4682C307.526 37.2319 307.872 36.9069 308.142 36.4934C308.412 36.0799 308.61 35.5988 308.737 35.0503C308.872 34.5017 308.939 33.9194 308.939 33.3033V33.0122C308.939 32.4045 308.872 31.8306 308.737 31.2905C308.61 30.7419 308.407 30.2567 308.129 29.8347C307.859 29.4127 307.513 29.0836 307.091 28.8473C306.677 28.6026 306.184 28.4802 305.61 28.4802C305.036 28.4802 304.538 28.6026 304.116 28.8473C303.702 29.0836 303.361 29.4127 303.091 29.8347C302.821 30.2567 302.622 30.7419 302.496 31.2905C302.369 31.8306 302.306 32.4045 302.306 33.0122ZM323.32 26.3028H326.092V39.6202C326.092 40.8524 325.831 41.8989 325.307 42.7597C324.784 43.6205 324.054 44.2746 323.117 44.7219C322.181 45.1776 321.096 45.4055 319.864 45.4055C319.341 45.4055 318.758 45.3295 318.117 45.1776C317.484 45.0257 316.868 44.7809 316.269 44.4434C315.678 44.1142 315.184 43.6796 314.788 43.1395L316.218 41.3419C316.708 41.9242 317.248 42.3504 317.839 42.6204C318.429 42.8905 319.05 43.0255 319.699 43.0255C320.4 43.0255 320.995 42.8947 321.484 42.6331C321.982 42.3799 322.366 42.0044 322.636 41.5064C322.906 41.0085 323.041 40.4009 323.041 39.6835V29.4043L323.32 26.3028ZM314.015 33.3033V33.0375C314.015 31.9994 314.142 31.0542 314.395 30.2018C314.648 29.341 315.011 28.6026 315.484 27.9865C315.957 27.362 316.53 26.8851 317.206 26.556C317.881 26.2184 318.644 26.0496 319.497 26.0496C320.383 26.0496 321.138 26.21 321.763 26.5307C322.396 26.8514 322.923 27.3113 323.345 27.9105C323.767 28.5013 324.096 29.2102 324.333 30.0373C324.577 30.8559 324.759 31.7673 324.877 32.7716V33.6198C324.767 34.5988 324.582 35.4933 324.32 36.3035C324.058 37.1137 323.712 37.8142 323.282 38.4049C322.852 38.9957 322.32 39.4514 321.687 39.7721C321.062 40.0928 320.324 40.2532 319.472 40.2532C318.636 40.2532 317.881 40.0802 317.206 39.7342C316.539 39.3881 315.965 38.9029 315.484 38.2784C315.011 37.6538 314.648 36.9196 314.395 36.0757C314.142 35.2233 314.015 34.2992 314.015 33.3033ZM317.066 33.0375V33.3033C317.066 33.9278 317.125 34.5102 317.244 35.0503C317.37 35.5904 317.56 36.0672 317.813 36.4808C318.075 36.8859 318.404 37.2065 318.801 37.4429C319.206 37.6707 319.683 37.7847 320.231 37.7847C320.948 37.7847 321.535 37.6327 321.991 37.3289C322.455 37.0251 322.809 36.6158 323.054 36.101C323.307 35.5777 323.485 34.9954 323.586 34.354V32.0627C323.535 31.5648 323.43 31.1006 323.269 30.6702C323.117 30.2398 322.911 29.8642 322.649 29.5435C322.387 29.2144 322.058 28.9612 321.662 28.784C321.265 28.5983 320.797 28.5055 320.256 28.5055C319.708 28.5055 319.231 28.6237 318.826 28.86C318.421 29.0963 318.087 29.4212 317.826 29.8347C317.573 30.2482 317.383 30.7293 317.256 31.2779C317.13 31.8264 317.066 32.413 317.066 33.0375ZM332.523 20.5556V40H329.46V20.5556H332.523ZM341.904 40.2532C340.891 40.2532 339.975 40.0886 339.157 39.7595C338.346 39.4219 337.654 38.9535 337.08 38.3543C336.515 37.7551 336.08 37.0504 335.777 36.2402C335.473 35.43 335.321 34.5566 335.321 33.6198V33.1134C335.321 32.0416 335.477 31.0711 335.789 30.2018C336.101 29.3326 336.536 28.5899 337.093 27.9738C337.65 27.3493 338.308 26.8725 339.068 26.5433C339.827 26.2142 340.65 26.0496 341.536 26.0496C342.515 26.0496 343.372 26.2142 344.106 26.5433C344.84 26.8725 345.448 27.3366 345.929 27.9358C346.419 28.5266 346.782 29.2313 347.018 30.0499C347.263 30.8685 347.385 31.7716 347.385 32.759V34.0629H336.802V31.8728H344.372V31.6323C344.355 31.0837 344.245 30.5689 344.043 30.0879C343.849 29.6068 343.549 29.2186 343.144 28.9233C342.739 28.6279 342.199 28.4802 341.524 28.4802C341.017 28.4802 340.566 28.5899 340.169 28.8093C339.781 29.0203 339.456 29.3283 339.194 29.7334C338.933 30.1385 338.73 30.628 338.587 31.2019C338.452 31.7673 338.384 32.4045 338.384 33.1134V33.6198C338.384 34.219 338.464 34.776 338.625 35.2908C338.794 35.7972 339.038 36.2402 339.359 36.62C339.68 36.9998 340.068 37.2994 340.524 37.5188C340.979 37.7298 341.498 37.8353 342.081 37.8353C342.815 37.8353 343.469 37.6876 344.043 37.3922C344.617 37.0968 345.115 36.6791 345.537 36.139L347.144 37.696C346.849 38.1264 346.465 38.54 345.992 38.9366C345.52 39.3248 344.942 39.6413 344.258 39.8861C343.583 40.1308 342.798 40.2532 341.904 40.2532Z" fill="white"/>
</g>
<defs>
<filter id="filter0_d_1994_14263" x="0" y="0" width="401" height="66" filterUnits="userSpaceOnUse" color-interpolation-filters="sRGB">
<feFlood flood-opacity="0" result="BackgroundImageFix"/>
<feColorMatrix in="SourceAlpha" type="matrix" values="0 0 0 0 0 0 0 0 0 0 0 0 0 0 0 0 0 0 127 0" result="hardAlpha"/>
<feOffset dy="2"/>
<feGaussianBlur stdDeviation="1.5"/>
<feColorMatrix type="matrix" values="0 0 0 0 0 0 0 0 0 0 0 0 0 0 0 0 0 0 0.168 0"/>
<feBlend mode="normal" in2="BackgroundImageFix" result="effect1_dropShadow_1994_14263"/>
<feBlend mode="normal" in="SourceGraphic" in2="effect1_dropShadow_1994_14263" result="shape"/>
</filter>
</defs>
</svg>
