<svg xmlns="http://www.w3.org/2000/svg" width="401" height="66" fill="none"><g filter="url(#a)"><rect width="395" height="60" x="3" y="1" fill="#fff" fill-opacity=".1" rx="10"/><path fill="#4285F4" fill-rule="evenodd" d="M82.218 31.246c0-1.057-.094-2.073-.27-3.049h-14.04v5.767h8.022c-.346 1.863-1.396 3.442-2.975 4.499v3.74h4.818c2.82-2.595 4.445-6.417 4.445-10.957" clip-rule="evenodd"/><path fill="#34A853" fill-rule="evenodd" d="M67.907 45.815c4.025 0 7.4-1.335 9.866-3.612l-4.818-3.74c-1.335.894-3.043 1.422-5.048 1.422-3.883 0-7.17-2.622-8.342-6.145h-4.98v3.862c2.453 4.872 7.494 8.213 13.322 8.213" clip-rule="evenodd"/><path fill="#FBBC05" fill-rule="evenodd" d="M59.566 33.74a9 9 0 0 1-.468-2.833c0-.982.17-1.937.468-2.832v-3.862h-4.98A14.9 14.9 0 0 0 53 30.907c0 2.406.576 4.683 1.586 6.695z" clip-rule="evenodd"/><path fill="#EA4335" fill-rule="evenodd" d="M67.907 21.93c2.188 0 4.154.751 5.699 2.228l4.275-4.275C75.3 17.477 71.925 16 67.907 16c-5.828 0-10.87 3.34-13.322 8.213l4.98 3.862c1.173-3.524 4.46-6.146 8.342-6.146" clip-rule="evenodd"/><path fill="#fff" d="M112.76 34h3.165q-.152 1.809-1.013 3.228-.86 1.404-2.417 2.215t-3.786.81q-1.708 0-3.076-.608a6.75 6.75 0 0 1-2.342-1.746q-.974-1.14-1.493-2.748-.507-1.607-.507-3.595v-1.531q0-1.988.519-3.596.532-1.607 1.519-2.747a6.6 6.6 0 0 1 2.368-1.76q1.392-.606 3.126-.607 2.203 0 3.722.81t2.355 2.241q.847 1.431 1.038 3.279h-3.165q-.126-1.19-.557-2.038a2.87 2.87 0 0 0-1.241-1.292q-.822-.455-2.152-.455-1.088 0-1.898.405a3.6 3.6 0 0 0-1.355 1.19q-.544.785-.823 1.937-.266 1.139-.266 2.607v1.557q0 1.393.241 2.532.254 1.127.759 1.937.519.81 1.317 1.253.798.444 1.911.443 1.356 0 2.191-.43a2.87 2.87 0 0 0 1.278-1.253q.443-.836.582-2.038m5.165-.697v-.29q0-1.482.431-2.748.43-1.278 1.24-2.215a5.6 5.6 0 0 1 2-1.469q1.19-.531 2.684-.531 1.507 0 2.684.531a5.6 5.6 0 0 1 2.013 1.469 6.4 6.4 0 0 1 1.253 2.215q.43 1.266.43 2.747v.291a8.5 8.5 0 0 1-.43 2.747 6.6 6.6 0 0 1-1.253 2.216 5.8 5.8 0 0 1-2 1.468q-1.178.52-2.671.52-1.507 0-2.697-.52a5.8 5.8 0 0 1-2-1.468 6.6 6.6 0 0 1-1.253-2.216 8.5 8.5 0 0 1-.431-2.747m3.051-.29v.29q0 .925.19 1.747.19.824.595 1.443.405.621 1.038.975t1.507.355q.847 0 1.468-.355a2.94 2.94 0 0 0 1.038-.975q.405-.62.595-1.443a7.3 7.3 0 0 0 .203-1.747v-.29q0-.912-.203-1.722a4.4 4.4 0 0 0-.608-1.456 2.9 2.9 0 0 0-1.038-.988q-.62-.367-1.481-.367t-1.494.367a2.94 2.94 0 0 0-1.025.988q-.405.633-.595 1.456a7.5 7.5 0 0 0-.19 1.721m15.267-3.786V40h-3.051V26.303h2.874zm-.544 3.418-.988-.013q.013-1.455.405-2.67.406-1.215 1.114-2.09a4.9 4.9 0 0 1 1.722-1.341q1-.481 2.228-.481.987 0 1.785.278.81.266 1.38.874.582.607.886 1.582.304.962.304 2.367V40h-3.064v-8.861q0-.988-.291-1.558a1.63 1.63 0 0 0-.823-.822q-.531-.254-1.329-.253-.784 0-1.405.329-.62.33-1.051.898-.417.57-.645 1.317a5.4 5.4 0 0 0-.228 1.595m18.229-6.342v2.228h-7.722v-2.228zm-5.494-3.355h3.051v13.267q0 .633.177.975.19.33.519.443.329.114.772.114.317 0 .608-.038t.468-.076l.013 2.329a8 8 0 0 1-.886.203 6.5 6.5 0 0 1-1.14.088q-1.05 0-1.86-.367-.811-.38-1.266-1.228-.456-.847-.456-2.253zm11.115 3.355V40h-3.064V26.303zm-3.266-3.595q0-.697.455-1.152.469-.47 1.292-.469.81 0 1.278.469.468.455.468 1.152 0 .683-.468 1.139t-1.278.456q-.823 0-1.292-.456-.456-.456-.455-1.14m9.633 6.52V40h-3.051V26.303h2.874zm-.544 3.417-.988-.013q.013-1.455.405-2.67.406-1.215 1.114-2.09a4.9 4.9 0 0 1 1.722-1.341q1-.481 2.228-.481.987 0 1.785.278.81.266 1.38.874.583.607.886 1.582.304.962.304 2.367V40h-3.064v-8.861q0-.988-.291-1.558a1.63 1.63 0 0 0-.823-.822q-.531-.254-1.329-.253-.784 0-1.405.329-.62.33-1.051.898-.417.57-.645 1.317a5.4 5.4 0 0 0-.228 1.595m20.191 4.127v-10.47h3.064V40h-2.887zm.431-2.848 1.025-.026q0 1.38-.304 2.545a5.9 5.9 0 0 1-.937 2.013 4.4 4.4 0 0 1-1.62 1.329q-.987.468-2.367.468a5.6 5.6 0 0 1-1.836-.291 3.76 3.76 0 0 1-1.443-.899q-.596-.607-.924-1.582-.33-.975-.329-2.33v-8.848h3.051v8.874q0 .747.177 1.253.177.494.481.798.304.303.709.43t.861.127q1.303 0 2.05-.507.76-.519 1.076-1.392.33-.874.33-1.962m11.798 6.33q-1.52 0-2.747-.494a6.1 6.1 0 0 1-2.076-1.406q-.849-.899-1.304-2.114a7.4 7.4 0 0 1-.456-2.62v-.507q0-1.607.469-2.911t1.303-2.228a5.6 5.6 0 0 1 1.975-1.43 6.15 6.15 0 0 1 2.469-.494q1.468 0 2.57.493a4.8 4.8 0 0 1 1.822 1.393q.735.885 1.089 2.114.367 1.229.367 2.709v1.304H192.69v-2.19h7.57v-.24a4.3 4.3 0 0 0-.329-1.545 2.6 2.6 0 0 0-.899-1.165q-.607-.443-1.62-.443-.76 0-1.354.33a2.7 2.7 0 0 0-.975.923q-.393.608-.608 1.469a8.3 8.3 0 0 0-.202 1.911v.507q0 .899.24 1.67.254.76.734 1.33.481.57 1.165.899.684.316 1.557.316 1.101 0 1.962-.443a4.5 4.5 0 0 0 1.494-1.253l1.608 1.557q-.444.645-1.152 1.24-.71.583-1.735.95-1.013.367-2.354.367m18.039-3.292 3.165-10.66h1.949l-.531 3.19L217.224 40h-1.747zm-1.861-10.66 2.469 10.71.202 2.988h-1.949l-3.709-13.697zm9.938 10.584 2.392-10.583h2.975L225.579 40h-1.95zm-2.633-10.583 3.126 10.532.393 3.165h-1.747l-3.228-10.52-.532-3.177zm13.342 0V40h-3.063V26.303zm-3.266-3.595q0-.697.456-1.152.469-.47 1.291-.469.81 0 1.279.469.468.455.468 1.152 0 .683-.468 1.139t-1.279.456q-.822 0-1.291-.456-.456-.456-.456-1.14m12.887 3.595v2.228h-7.722v-2.228zm-5.494-3.355h3.051v13.267q0 .633.177.975.19.33.519.443.33.114.773.114.316 0 .607-.038.29-.038.469-.076l.012 2.329a8 8 0 0 1-.886.203 6.5 6.5 0 0 1-1.139.088q-1.051 0-1.861-.367-.81-.38-1.266-1.228-.456-.847-.456-2.253zm10.862-2.392V40h-3.038V20.556zm-.532 12.089-.987-.013a9 9 0 0 1 .392-2.62 6.7 6.7 0 0 1 1.089-2.089 4.84 4.84 0 0 1 3.886-1.873q1.013 0 1.823.278a3.5 3.5 0 0 1 1.418.899q.595.608.899 1.595.316.975.316 2.38V40h-3.063v-8.823q0-.988-.292-1.57a1.68 1.68 0 0 0-.822-.836q-.544-.265-1.33-.265-.822 0-1.455.329-.621.33-1.038.898-.418.57-.633 1.317a6 6 0 0 0-.203 1.595m32.838-2.063v7.038q-.393.519-1.228 1.14-.823.607-2.19 1.05-1.368.443-3.405.443-1.735 0-3.178-.582a7 7 0 0 1-2.494-1.734q-1.038-1.14-1.607-2.773-.57-1.645-.57-3.747v-1.279q0-2.088.519-3.721.531-1.646 1.519-2.785a6.35 6.35 0 0 1 2.38-1.722q1.405-.595 3.177-.595 2.266 0 3.748.76 1.493.747 2.303 2.076t1.026 3.038h-3.114a4.9 4.9 0 0 0-.595-1.722 3 3 0 0 0-1.241-1.19q-.798-.443-2.076-.443-1.101 0-1.937.418a3.66 3.66 0 0 0-1.392 1.228q-.544.81-.823 1.975-.279 1.164-.279 2.658v1.304q0 1.52.317 2.697.329 1.177.937 1.987.62.81 1.506 1.228.887.405 2 .405 1.089 0 1.785-.177.696-.19 1.101-.443.418-.265.646-.507V32.95h-3.836v-2.367zm2.633 2.721v-.29q0-1.482.43-2.748a6.5 6.5 0 0 1 1.241-2.215 5.6 5.6 0 0 1 2-1.469q1.19-.531 2.684-.531 1.506 0 2.684.531a5.6 5.6 0 0 1 2.012 1.469 6.4 6.4 0 0 1 1.254 2.215q.43 1.266.43 2.747v.291a8.5 8.5 0 0 1-.43 2.747 6.6 6.6 0 0 1-1.254 2.216 5.8 5.8 0 0 1-2 1.468q-1.177.52-2.671.52-1.506 0-2.696-.52a5.8 5.8 0 0 1-2-1.468 6.6 6.6 0 0 1-1.254-2.216 8.5 8.5 0 0 1-.43-2.747m3.051-.29v.29q0 .925.19 1.747a4.4 4.4 0 0 0 .595 1.443q.405.621 1.038.975t1.506.355q.849 0 1.469-.355a2.94 2.94 0 0 0 1.038-.975q.405-.62.595-1.443a7.3 7.3 0 0 0 .202-1.747v-.29a7 7 0 0 0-.202-1.722 4.4 4.4 0 0 0-.608-1.456 2.9 2.9 0 0 0-1.038-.988q-.62-.367-1.481-.367t-1.494.367a2.94 2.94 0 0 0-1.025.988 4.6 4.6 0 0 0-.595 1.456 7.5 7.5 0 0 0-.19 1.721m11.659.29v-.29q0-1.482.43-2.748a6.5 6.5 0 0 1 1.241-2.215 5.6 5.6 0 0 1 2-1.469q1.19-.531 2.684-.531 1.506 0 2.684.531a5.6 5.6 0 0 1 2.012 1.469 6.4 6.4 0 0 1 1.254 2.215q.43 1.266.43 2.747v.291a8.5 8.5 0 0 1-.43 2.747 6.6 6.6 0 0 1-1.254 2.216 5.8 5.8 0 0 1-2 1.468q-1.177.52-2.671.52-1.506 0-2.696-.52a5.8 5.8 0 0 1-2-1.468 6.6 6.6 0 0 1-1.254-2.216 8.5 8.5 0 0 1-.43-2.747m3.051-.29v.29q0 .925.19 1.747a4.4 4.4 0 0 0 .595 1.443q.405.621 1.038.975t1.506.355q.848 0 1.469-.355a2.94 2.94 0 0 0 1.038-.975q.405-.62.595-1.443a7.3 7.3 0 0 0 .202-1.747v-.29a7 7 0 0 0-.202-1.722 4.4 4.4 0 0 0-.608-1.456 2.9 2.9 0 0 0-1.038-.988q-.62-.367-1.481-.367t-1.494.367a2.9 2.9 0 0 0-1.025.988 4.6 4.6 0 0 0-.595 1.456 7.5 7.5 0 0 0-.19 1.721m21.014-6.71h2.772V39.62q0 1.848-.785 3.14a5.04 5.04 0 0 1-2.19 1.962q-1.404.684-3.253.684a7.6 7.6 0 0 1-1.747-.228 7.2 7.2 0 0 1-1.848-.735 4.6 4.6 0 0 1-1.481-1.303l1.43-1.798q.735.873 1.621 1.278a4.4 4.4 0 0 0 1.86.406q1.051 0 1.785-.393a2.65 2.65 0 0 0 1.152-1.127q.405-.747.405-1.822v-10.28zm-9.305 7v-.265q0-1.558.38-2.836.38-1.292 1.089-2.216a4.75 4.75 0 0 1 1.722-1.43q1.012-.506 2.291-.506 1.329 0 2.266.48.95.482 1.582 1.38.633.887.988 2.127.367 1.228.544 2.735v.848a13.7 13.7 0 0 1-.557 2.684q-.393 1.215-1.038 2.1a4.4 4.4 0 0 1-1.595 1.368q-.937.48-2.215.481-1.254 0-2.266-.519a5.2 5.2 0 0 1-1.722-1.456q-.71-.936-1.089-2.202a9.7 9.7 0 0 1-.38-2.773m3.051-.265v.265q0 .937.178 1.747a4.8 4.8 0 0 0 .569 1.43q.393.609.988.963.608.342 1.43.342 1.076 0 1.76-.456a2.95 2.95 0 0 0 1.063-1.228 6.2 6.2 0 0 0 .532-1.747v-2.291a5.6 5.6 0 0 0-.317-1.393 3.7 3.7 0 0 0-.62-1.126 2.6 2.6 0 0 0-.987-.76q-.595-.279-1.406-.278-.822 0-1.43.354a2.9 2.9 0 0 0-1 .975 4.8 4.8 0 0 0-.57 1.443 8 8 0 0 0-.19 1.76m15.457-12.482V40h-3.063V20.556zm9.381 19.697q-1.52 0-2.747-.493a6.1 6.1 0 0 1-2.077-1.406q-.848-.899-1.303-2.114a7.4 7.4 0 0 1-.456-2.62v-.507q0-1.607.468-2.911t1.304-2.228a5.6 5.6 0 0 1 1.975-1.43 6.1 6.1 0 0 1 2.468-.494q1.469 0 2.57.493 1.101.495 1.823 1.393.735.885 1.089 2.114.367 1.229.367 2.709v1.304h-10.583v-2.19h7.57v-.24a4.3 4.3 0 0 0-.329-1.545 2.6 2.6 0 0 0-.899-1.165q-.607-.443-1.62-.443-.76 0-1.355.33a2.7 2.7 0 0 0-.975.923q-.392.608-.607 1.469a8.3 8.3 0 0 0-.203 1.911v.507q0 .899.241 1.67.253.76.734 1.33t1.165.899q.682.316 1.557.316 1.101 0 1.962-.443a4.5 4.5 0 0 0 1.494-1.253l1.607 1.557q-.442.645-1.152 1.24-.708.583-1.734.95-1.013.367-2.354.367"/></g><defs><filter id="a" width="401" height="66" x="0" y="0" color-interpolation-filters="sRGB" filterUnits="userSpaceOnUse"><feFlood flood-opacity="0" result="BackgroundImageFix"/><feColorMatrix in="SourceAlpha" result="hardAlpha" values="0 0 0 0 0 0 0 0 0 0 0 0 0 0 0 0 0 0 127 0"/><feOffset dy="2"/><feGaussianBlur stdDeviation="1.5"/><feColorMatrix values="0 0 0 0 0 0 0 0 0 0 0 0 0 0 0 0 0 0 0.168 0"/><feBlend in2="BackgroundImageFix" result="effect1_dropShadow_1994_14263"/><feBlend in="SourceGraphic" in2="effect1_dropShadow_1994_14263" result="shape"/></filter></defs></svg>