<svg width="169" height="196" viewBox="0 0 169 196" fill="none" xmlns="http://www.w3.org/2000/svg">
<path fill-rule="evenodd" clip-rule="evenodd" d="M143.186 93.8384L84.4958 127.892L143.186 161.945L143.186 93.8384ZM143.184 161.944L84.4932 127.891L84.4932 195.998L143.184 161.944Z" fill="#33373F"/>
<path fill-rule="evenodd" clip-rule="evenodd" d="M25.8118 161.946L84.5022 127.892L25.8118 93.8391L25.8118 161.946ZM25.8175 161.947L84.5079 196L84.5079 127.893L25.8175 161.947Z" fill="#4C535D"/>
<path d="M84.4983 127.893L25.8079 93.8399L84.4983 59.7865L84.4983 127.893Z" fill="#33373F"/>
<path d="M84.4983 127.891L84.4983 59.7843L143.189 93.8376L84.4983 127.891Z" fill="#4C535D"/>
<path d="M110.45 142.972L168.992 109.005L143.038 93.9487L84.4958 127.916L110.45 142.972Z" fill="#656D77"/>
<path d="M25.9538 93.667L84.4958 59.6998L58.542 44.6438L0 78.611L25.9538 93.667Z" fill="#656D77"/>
<path d="M58.542 142.972L1.71381e-05 109.005L25.9538 93.9487L84.4958 127.916L58.542 142.972Z" fill="#656D77"/>
<path d="M143.046 93.667L84.5042 59.6998L110.458 44.6438L169 78.611L143.046 93.667Z" fill="#656D77"/>
<path d="M75.25 26.3534C76.6906 20.1689 74.0625 13.2142 72.5684 10.5099L86.8599 6.18091L100.884 10.2812C103.956 18.2342 100.074 35.4009 100.074 35.4009C100.074 35.4009 91.994 38.428 82.7534 39.2555C74.7771 39.9699 72.0844 39.9406 69.0626 39.4864C70.5248 37.6856 73.8094 32.5379 75.25 26.3534Z" fill="#4C535D"/>
<mask id="mask0_1994_22543" style="mask-type:alpha" maskUnits="userSpaceOnUse" x="69" y="6" width="34" height="35">
<path d="M75.2478 26.3541C76.6884 20.1696 74.0603 13.2149 72.5662 10.5106L86.8634 6.17712L100.893 10.2842C104.335 18.8212 101.559 32.7241 99.6533 34.8258C97.7473 36.9274 92.0788 38.5738 82.6655 40.1093C79.0338 40.7017 72.0822 39.9413 69.0604 39.4871C70.5226 37.6863 73.8072 32.5385 75.2478 26.3541Z" fill="#D9D9D9"/>
</mask>
<g mask="url(#mask0_1994_22543)">
<path d="M88.4636 14.4136L86.1582 2.64069L89.5693 1.13662L108.918 7.61825L88.4636 14.4136Z" fill="#656D77"/>
</g>
</svg>
