<svg xmlns="http://www.w3.org/2000/svg" width="169" height="196" fill="none"><path fill="#33373F" fill-rule="evenodd" d="m143.186 93.838-58.69 34.054 58.69 34.053zm-.002 68.106-58.69-34.053v68.107z" clip-rule="evenodd"/><path fill="#4C535D" fill-rule="evenodd" d="m25.812 161.946 58.69-34.054-58.69-34.053zm.005.001L84.508 196v-68.107z" clip-rule="evenodd"/><path fill="#33373F" d="M84.498 127.893 25.808 93.84l58.69-34.054z"/><path fill="#4C535D" d="M84.498 127.891V59.784l58.691 34.054z"/><path fill="#656D77" d="m110.45 142.972 58.542-33.967-25.954-15.056-58.542 33.967zM25.954 93.667 84.496 59.7 58.542 44.644 0 78.61zm32.588 49.305L0 109.005l25.954-15.056 58.542 33.967zm84.504-49.305L84.504 59.7l25.954-15.056L169 78.61z"/><path fill="#4C535D" d="M75.25 26.353c1.44-6.184-1.187-13.139-2.682-15.843L86.86 6.18l14.024 4.101c3.072 7.953-.81 25.12-.81 25.12s-8.08 3.027-17.32 3.854c-7.977.715-10.67.686-13.691.231 1.462-1.8 4.746-6.948 6.187-13.133"/><mask id="a" width="34" height="35" x="69" y="6" maskUnits="userSpaceOnUse" style="mask-type:alpha"><path fill="#D9D9D9" d="M75.248 26.354c1.44-6.184-1.188-13.14-2.682-15.843l14.297-4.334 14.03 4.107c3.442 8.537.666 22.44-1.24 24.542-1.906 2.101-7.574 3.748-16.988 5.283-3.631.593-10.583-.168-13.605-.622 1.463-1.8 4.747-6.949 6.188-13.133"/></mask><g mask="url(#a)"><path fill="#656D77" d="M88.464 14.414 86.158 2.64l3.411-1.504 19.349 6.481z"/></g></svg>