<svg width="64" height="64" viewBox="0 0 64 64" fill="none" xmlns="http://www.w3.org/2000/svg">
<circle opacity="0.4" cx="32" cy="32" r="32" fill="#06FFD2"/>
<g clip-path="url(#clip0_952_18881)">
<path fill-rule="evenodd" clip-rule="evenodd" d="M42.3647 33.1596L27.7855 42.6583C27.6246 42.7632 27.4382 42.8227 27.2463 42.8305C27.0543 42.8382 26.8638 42.794 26.6948 42.7024C26.5259 42.6109 26.3849 42.4754 26.2866 42.3103C26.1883 42.1452 26.1364 41.9566 26.1365 41.7644V22.7671C26.1364 22.5749 26.1883 22.3864 26.2866 22.2213C26.3849 22.0562 26.5259 21.9207 26.6948 21.8291C26.8638 21.7375 27.0543 21.6933 27.2463 21.7011C27.4382 21.7088 27.6246 21.7683 27.7855 21.8732L42.3647 31.3719C42.5135 31.4688 42.6358 31.6013 42.7204 31.7574C42.805 31.9135 42.8494 32.0882 42.8494 32.2658C42.8494 32.4433 42.805 32.6181 42.7204 32.7742C42.6358 32.9302 42.5135 33.0627 42.3647 33.1596Z" fill="#06FFD2"/>
</g>
<defs>
<clipPath id="clip0_952_18881">
<rect width="25.6" height="25.6" fill="white" transform="translate(19.2031 19.1992)"/>
</clipPath>
</defs>
</svg>
