<svg xmlns="http://www.w3.org/2000/svg" width="64" height="64" fill="none"><circle cx="32" cy="32" r="32" fill="#868C93" opacity=".4"/><path fill="#868C93" d="M28.798 40.534h-3.2c-.283 0-.554-.082-.754-.228-.2-.145-.312-.343-.312-.548V24.243c0-.206.112-.403.312-.549.2-.145.471-.227.754-.227h3.2c.283 0 .554.082.754.227s.313.343.313.549v15.515c0 .205-.113.403-.313.548s-.47.227-.754.227m9.601.001h-3.2c-.283 0-.554-.082-.755-.228-.2-.145-.312-.343-.312-.548V24.243c0-.206.113-.403.313-.549.2-.145.47-.227.754-.227h3.2c.283 0 .554.082.754.227s.312.343.312.549v15.515c0 .205-.112.403-.312.548s-.471.227-.754.227"/></svg>