<svg xmlns="http://www.w3.org/2000/svg" width="54" height="54" fill="none"><rect width="54" height="54" fill="#4C535D" rx="16"/><path fill="url(#a)" fill-rule="evenodd" d="M12.77 12.77c-6.36 6.36-6.36 16.67 0 23.03l3.839-3.838c-4.239-4.238-4.239-11.115 0-15.353 4.238-4.239 11.115-4.239 15.353 0L35.8 12.77c6.36 6.36 6.36 16.67 0 23.03s-16.67 6.36-23.03 0l-3.84 3.84c8.477 8.481 22.226 8.481 30.708 0 8.48-8.477 8.48-22.226 0-30.707L35.8 12.77c-6.36-6.36-16.67-6.36-23.03 0m15.355 15.354a5.426 5.426 0 0 0 0-7.677l3.838-3.838c4.239 4.238 4.239 11.115 0 15.353-4.238 4.239-11.115 4.239-15.353 0l3.838-3.838a5.426 5.426 0 0 0 7.677 0m-7.678 0a5.425 5.425 0 0 1 0-7.677 5.425 5.425 0 0 1 7.677 0l-3.838 3.838z" clip-rule="evenodd"/><defs><linearGradient id="a" x1="8.931" x2="51.516" y1="11.385" y2="5.561" gradientUnits="userSpaceOnUse"><stop stop-color="#00F2C6"/><stop offset="1" stop-color="#A5FFFD"/></linearGradient></defs></svg>